# xmcd CD database file
#
# Track frame offsets:
#	150
#	126104
#	234223
#
# Disc length: 4005 seconds
#
# Revision: 1
# Processed by: cddbd v1.5.2PL0 Copyright (c) Steve Scherf et al.
# Submitted via: CDex 1.51
#
DISCID=1a0fa303
DTITLE=Centerpointe Research Institute (Holosync) - The Inside Secrets of How to be Happy, Peacful, and Successful...All the Time [CD4]
DYEAR=2003
DGENRE=New Age
TTITLE0=Principle #3: Chaos and Reorganization
TTITLE1=Principle #4: The Map is not the Territory
TTITLE2=Principle #5: Responsability as Empowerment
EXTD=YEAR: 2003
EXTT0=
EXTT1=
EXTT2=
PLAYORDER=
